<?xml version="1.0" encoding="utf-8"?>
<!-- Generator: Adobe Illustrator 25.1.0, SVG Export Plug-In . SVG Version: 6.00 Build 0)  -->
<svg version="1.1" id="Calque_2" xmlns="http://www.w3.org/2000/svg" xmlns:xlink="http://www.w3.org/1999/xlink" x="0px" y="0px"
	 viewBox="0 0 1235 414" style="enable-background:new 0 0 1235 414;" xml:space="preserve">
<style type="text/css">
	.st0{fill:#FFED00;}
	.st1{fill:#E30613;}
</style>
<polygon class="st0" points="1235,178 25.7,178 0,273.9 1209.3,273.9 "/>
<path class="st1" d="M475.5,337.2l70-55.3c20.9,28.9,52.8,48.5,83.5,48.5c28.3,0,46.7-12.9,46.7-35c0-17.8-17.8-25.8-45.5-43
	L595.9,231c-36.9-23.3-59-52.2-59-102c0-71.9,65.7-129,146.8-129c46.7,0,91.5,23.3,124.1,62l-61.4,57.7c-20.3-20.3-40.5-35-66.3-35
	c-28.3,0-42.4,15.4-42.4,34.4c0,16.6,17.2,24,49.1,44.2l36.9,22.7c38.7,23.3,54.1,48.5,54.1,95.2c0,73.1-60.2,132.7-156,132.7
	C570.7,414,517.3,393.1,475.5,337.2z"/>
<path class="st1" d="M900.5,7.4h98.3l-63.9,316.9h145l-16,82.3H820.7L900.5,7.4z"/>
<path class="st1" d="M385.8,201.5l1.2-2.5c55.3-17.2,86-56.5,86-99.5c0-65.1-57.7-92.1-138.8-92.1H206.5l-79.9,399.3h151.1
	c93.4,0,175.7-36.9,175.7-132.7C453.4,237.1,431.3,212.5,385.8,201.5z M323.8,166c-4,22.5-8,45.1-12,67.6c32,1.8,47.1,16.5,47.1,44
	c0,33.2-24.6,54.1-73.7,54.1h-45.5l19.7-98.3h0.2l13.4-66.3h-0.1L290,82.3h28.3c36.9,0,54.1,12.3,54.1,34.4
	C372.3,143.3,358.5,161.5,323.8,166z"/>
<rect x="131" y="178" class="st0" width="150.1" height="95.9"/>
</svg>
