<?xml version="1.0" encoding="utf-8"?>
<!-- Generator: Adobe Illustrator 25.1.0, SVG Export Plug-In . SVG Version: 6.00 Build 0)  -->
<svg version="1.1" id="Calque_1" xmlns="http://www.w3.org/2000/svg" xmlns:xlink="http://www.w3.org/1999/xlink" x="0px" y="0px"
	 viewBox="0 0 1000 872" style="enable-background:new 0 0 1000 872;" xml:space="preserve">
<style type="text/css">
	.st0{fill:#EC1C24;}
	.st1{fill:#FEFEFE;}
	.st2{fill:#130D0F;}
</style>
<path class="st0" d="M490.9,18.1c4.8-0.9,9.2-0.6,12.9,0c0.3,0.2,0.6,0.6,0.9,0.6c16.2,2.5,27.8,11.2,36,25.3
	c139.2,239.6,278.5,479.2,417.9,718.7c6.6,11.4,8,23.3,5.6,35.9c-3.5,18.5-23.9,38.5-47,38.5c-277.9-0.6-555.7-0.4-833.6-0.4
	c-2.3,0-4.6,0-6.8-0.1c-22.2-0.8-39.4-13.7-46.4-34.9c-1.2-3.6-2.1-7.3-3.1-11c-0.6-3.8-1-9.1,0-15.2c1.8-11.3,7.3-19.2,10.4-23.1
	C178.9,515.9,320.1,279.4,461.2,42.8C462.7,39.8,472,21.6,490.9,18.1z M496.6,169.5c-1,1.6-1.7,2.6-2.2,3.6
	C387.6,357.6,280.7,542,173.9,726.5c-2.7,4.7-2.7,4.7,2.9,4.7c212.9,0,425.9,0,638.8,0c1.8,0,4.4,0.9,5.3-0.5c1-1.6-1.2-3.3-2-4.8
	C721.6,557.8,624.3,389.9,527.1,222C517,204.7,507,187.4,496.6,169.5z"/>
<path class="st1" d="M496.6,169.5c10.4,17.9,20.4,35.2,30.4,52.5c97.3,167.9,194.5,335.8,291.7,503.8c0.9,1.5,3.1,3.2,2,4.8
	c-0.9,1.4-3.5,0.5-5.3,0.5c-212.9,0-425.9,0-638.8,0c-5.6,0-5.6,0-2.9-4.7C280.7,542,387.6,357.6,494.4,173.1
	C495,172.1,495.6,171.1,496.6,169.5z M494.9,686.3c88.2,0,176.5,0,264.7,0c0.9,0,1.9-0.1,2.8,0c2.2,0.3,2.7-0.8,2.6-2.8
	c-0.1-4.8-0.2-9.6,0-14.4c0.1-2.4-0.8-3.2-3-2.7c-4,0.9-4.8-1.3-5.1-4.7c-1.2-11.6-5-22.2-11.2-32.2c-4.1-6.6-7.1-14.2-6.6-22.3
	c0.2-2.8-0.6-4.9-2.3-6.9c-3.8-4.5-6.1-9.7-7.2-15.3c-1.7-8.8-7.1-14.9-13.4-20.5c-2-1.7-2.8-3.4-1.9-5.9c0.3-0.9,1.1-1.4-0.6-2.3
	c-5.6-3.1-9.3-8.3-12.8-13.5c-0.8-1.2-0.7-3.4-2.4-3.9c-5.8-1.7-11.9-4.9-17.8-2c-10.4,5-19.8,11.8-27.7,20.1
	c-4.2,4.4-9.1,7.4-14,10.4c-1.7,1-3.7,1-5.8,0.7c-4.9-0.7-9.3-2.1-12.7-6.1c-1.7-1.9-4.2-2.8-6.5-3.9
	c-21.3-10.1-43.1-19.2-64.2-29.9c-9.4-4.8-14.5-11.8-15.4-21.6c-1.4-14-2.2-28.2,0.7-42.1c3.3-15.8,4.3-32,10.5-47.2
	c2.2-5.3,0.2-10.2-3.7-14.3c-5.6-6-10.2-12.7-15.1-19.2c-1.7-2.2,0.7-8.1,3.5-8.2c7.7-0.4,12.9-4.7,17.6-10.1
	c4.4-5.1,4.4-5.3,10.5-3c2.2,0.8,2.4,0,2.2-1.6c-0.3-2.8-0.7-5.6-1.1-8.3c-0.2-1.5-0.5-2.9,1.1-3.9c3.2-1.8,2.6-4.2,1-6.7
	c-6.5-10.2-14.4-19-26.4-22.9c-1.6-0.5-3.2-1.3-4.8-2c-5.4-2.6-11.2-2.3-16.9-1.8c-1.7,0.1-3.6,1.7-3.4,4.1c0,0.7,0.2,1.5-0.4,1.8
	c-4.2,2.6-2.7,6.3-1.6,9.6c3.4,9.8-3.3,17.7-10.1,21.6c-1.2,0.7-2.2,1-3.6-0.1c-1.4-1-2.3-4.3-4.7-2.2c-1.7,1.5-3.8,1.3-5.5,2.7
	c-7.9,6.8-17.2,5.5-26.2,3.3c-3.2-0.8-5.8-0.9-8.7,0.7c-3.6,1.9-5.8,5.6-9.1,7.6c-10.5,6.2-21,12.9-33.5,14.7
	c-0.5,0.1-1.2,0.1-1.5,0.4c-3.7,3.7-8.3,6-13.1,8c-3.4,1.4-4.7,5-3.6,8.7c1.1,3.7,0.6,6.9-1,10.4c-5.3,11.9-8.3,24.5-10.4,37.3
	c-0.2,0.9-1.1,2.7,1.1,2.6c2.3-0.1,1.9,1,1.5,2.5c-0.6,2.1-1,4.1-1.5,6.2c-1.1,4.7,0.4,8.3,4.4,11c3.3,2.3,6.7,4.4,10.4,5.9
	c2.9,1.1,3.2,2.8,2.7,5.6c-0.6,3.4-3.1,5.8-3.8,9.1c-3.2,14.8-3.6,29.6,0.1,44.4c0.3,1,0.8,1.8,0.3,3c-3.6,9.6-2.9,19.5-1.4,29.3
	c1.4,8.8,2.1,17.3-0.3,26.1c-2.9,10.8-3.4,21.9-2.5,33c0.7,9.1,2.6,17.9,4.7,26.8c0.3,1.4,1,2.8-0.7,3.9c-1.9,1.2-1.8,3-1.5,5
	c0.3,2,0.3,4,0.6,6c0.3,2-0.4,2.6-2.4,2.5c-3.6-0.1-7.2-0.2-10.8,0c-2.6,0.1-4.5-0.6-6.3-2.6c-5.6-6.4-11.3-12.7-18.6-17.3
	c-1.2-0.7-2.4-1.5-3.1-2.9c-4.1-7.5-10.8-12.9-15.7-19.9c-3.1-4.4-8.3-7.4-12.7-10.8c-2.4-1.9-5.4-2.3-8.4-1.9
	c-6.5,0.9-11.8,4-16.1,8.9c-11.7,13.4-23.5,26.7-35.2,40.1c-1.6,1.9-3.3,2.7-5.8,2.6c-9-0.3-17.9-0.3-26.9-0.6
	c-3-0.1-4.3,0.5-4.1,3.8c0.3,5.2,0.4,10.4,0,15.6c-0.3,3.8,1.1,4.5,4.7,4.5C318.2,686.3,406.6,686.3,494.9,686.3z"/>
<path class="st2" d="M494.9,686.3c-88.4,0-176.7,0-265.1,0.1c-3.5,0-4.9-0.7-4.7-4.5c0.4-5.2,0.3-10.4,0-15.6
	c-0.2-3.4,1.1-4,4.1-3.8c9,0.3,17.9,0.3,26.9,0.6c2.5,0.1,4.2-0.7,5.8-2.6c11.7-13.4,23.5-26.8,35.2-40.1c4.3-4.9,9.6-8,16.1-8.9
	c3-0.4,6,0,8.4,1.9c4.4,3.5,9.6,6.4,12.7,10.8c4.9,7,11.6,12.4,15.7,19.9c0.8,1.4,2,2.2,3.1,2.9c7.3,4.6,13,10.9,18.6,17.3
	c1.8,2,3.7,2.7,6.3,2.6c3.6-0.2,7.2-0.1,10.8,0c1.9,0.1,2.7-0.6,2.4-2.5c-0.3-2-0.3-4-0.6-6c-0.3-2-0.4-3.8,1.5-5
	c1.6-1.1,1-2.5,0.7-3.9c-2.1-8.8-4-17.7-4.7-26.8c-0.9-11.1-0.4-22.3,2.5-33c2.4-8.8,1.7-17.4,0.3-26.1c-1.5-9.8-2.2-19.7,1.4-29.3
	c0.5-1.2,0-2-0.3-3c-3.7-14.8-3.4-29.6-0.1-44.4c0.7-3.3,3.2-5.8,3.8-9.1c0.5-2.8,0.3-4.4-2.7-5.6c-3.7-1.4-7.1-3.6-10.4-5.9
	c-4.1-2.7-5.5-6.3-4.4-11c0.5-2.1,0.9-4.2,1.5-6.2c0.4-1.4,0.7-2.6-1.5-2.5c-2.2,0.1-1.3-1.7-1.1-2.6c2.2-12.8,5.1-25.4,10.4-37.3
	c1.6-3.5,2.1-6.8,1-10.4c-1.1-3.7,0.2-7.3,3.6-8.7c4.8-2,9.4-4.3,13.1-8c0.3-0.3,1-0.3,1.5-0.4c12.5-1.9,22.9-8.5,33.5-14.7
	c3.4-2,5.5-5.7,9.1-7.6c2.9-1.5,5.4-1.5,8.7-0.7c9,2.2,18.3,3.5,26.2-3.3c1.7-1.4,3.8-1.3,5.5-2.7c2.3-2.1,3.3,1.2,4.7,2.2
	c1.4,1,2.4,0.8,3.6,0.1c6.7-3.9,13.5-11.8,10.1-21.6c-1.2-3.3-2.6-7,1.6-9.6c0.6-0.4,0.5-1.2,0.4-1.8c-0.1-2.4,1.7-3.9,3.4-4.1
	c5.7-0.5,11.5-0.8,16.9,1.8c1.6,0.8,3.1,1.5,4.8,2c12,3.9,19.8,12.7,26.4,22.9c1.6,2.5,2.2,4.9-1,6.7c-1.6,0.9-1.3,2.4-1.1,3.9
	c0.4,2.8,0.8,5.6,1.1,8.3c0.1,1.6,0,2.4-2.2,1.6c-6.1-2.3-6.1-2.1-10.5,3c-4.7,5.4-9.9,9.7-17.6,10.1c-2.8,0.1-5.2,6-3.5,8.2
	c4.9,6.5,9.5,13.3,15.1,19.2c3.9,4.2,5.8,9,3.7,14.3c-6.2,15.1-7.2,31.4-10.5,47.2c-2.9,13.9-2,28.1-0.7,42.1
	c1,9.7,6,16.8,15.4,21.6c21.1,10.7,42.9,19.8,64.2,29.9c2.3,1.1,4.8,2,6.5,3.9c3.4,3.9,7.8,5.3,12.7,6.1c2.1,0.3,4.2,0.3,5.8-0.7
	c5-3,9.8-6,14-10.4c7.9-8.2,17.3-15,27.7-20.1c5.9-2.9,12,0.3,17.8,2c1.7,0.5,1.6,2.6,2.4,3.9c3.5,5.2,7.2,10.4,12.8,13.5
	c1.7,0.9,0.9,1.4,0.6,2.3c-0.9,2.5-0.1,4.2,1.9,5.9c6.4,5.5,11.8,11.6,13.4,20.5c1,5.6,3.4,10.9,7.2,15.3c1.7,2,2.5,4.2,2.3,6.9
	c-0.5,8.2,2.5,15.7,6.6,22.3c6.2,10,10,20.6,11.2,32.2c0.3,3.4,1.1,5.6,5.1,4.7c2.1-0.5,3.1,0.3,3,2.7c-0.2,4.8-0.1,9.6,0,14.4
	c0,2-0.4,3.1-2.6,2.8c-0.9-0.1-1.9,0-2.8,0C671.4,686.3,583.2,686.3,494.9,686.3z M441.7,402.6c-1.6-1.1-3.1-0.2-4.5,0.4
	c-6.9,2.9-13.6,6.1-20.6,8.7c-2.4,0.9-3.3,2-3.6,4.4c-1.6,10.6-3.6,21.1-8.6,30.9c3.7,0.3,5,2.9,5.8,6.4c4.4-3.2,6.9-7.7,9.2-11.7
	c5.4-9.5,12.5-17.9,16.5-28.2c1.5-3.8,3.1-7.7,5.7-11c-0.1-0.2-0.2-0.4-0.2-0.7c-0.1,0.1-0.2,0.1-0.2,0.2
	C441.3,402.3,441.5,402.4,441.7,402.6z M638.4,573.3c-2.4,0-4.1,0-5.8,0c-3.4-0.1-7.1,0-9.2-3c-2.6-3.9-6.4-5.8-10.5-7.6
	c-6.5-2.9-12.9-5.8-19.3-8.8c-15.8-7.2-31.6-14.4-47.3-21.6c-2.2-1-4.7-2-6.3-0.2c-1.8,2.1,0.9,3.8,2,5.3c3.8,5,4.8,10.6,3.9,16.7
	c-1,7.2-3.3,14-6.7,20.4c-8,15.3-17.9,29.6-24.7,45.6c-1.4,3.4-4.4,5.3-8,6.1c-2,0.4-4.1,0.7-6.1,1.1c1.6,6.4,2.2,7.2,4.9,7.5
	c4.8,0.6,8.8,4.2,9.6,9.1c1.2,7.8,5.3,12.9,12.9,15.1c2.1,0.6,2.5,1.6,2,3.9c-0.5,2.8-3.5,3.8-4.1,6.2c6.4,1.6,11.6,0.2,15.9-4.9
	c5.2-6.4,12-10.4,19.7-13.4c1.8-0.7,3.6-1.9,5-3.3c8-7.5,15.4-15.7,20.9-25.2c3.3-5.7,7.5-9.8,13.3-12.1c10.4-4,16.3-12.1,21-21.5
	c1.8-3.5,4.1-6.6,7.2-9C631.7,577.7,634.7,575.8,638.4,573.3z M491.7,667.1c-0.9-0.9-1.2-1.3-1.6-1.6c-4.7-5.2-11.1-9-14-15.7
	c-0.5-1.2-1.4-1.2-2.2-0.4c-2.4,2.5-4.2,0.9-6-0.8c-1.4-1.3-2.8-2.4-4.3-3.6c-5.5-4.6-5.8-5.8-1.8-11.6c1.4-2,3.6-3.6,5.7-4.8
	c1.7-1,1.7-2,1.4-3.5c-0.9-4.8-0.7-9.6-0.1-14.4c2.5-18.2,8.8-35.1,17-51.4c1.2-2.3,1.6-3.8-0.9-5.6c-3.6-2.6-6.7-5.7-10.1-8.6
	c-8.1-6.9-16.2-13.9-24.5-21c-4.2,11.1-8.2,21.8-12.4,32.4c-2.4,6-3.7,12.2-3.7,18.7c0,4.7,0.3,9.4-1.6,13.8c-2.5,5.8-3,11.9-2.1,18
	c0.5,3.5,0.6,6.7-1.6,9.8c-0.9,1.2-1.3,3-1.3,4.5c0,7.2-0.1,14.4-3,21.2c-1.2,2.8,0.8,4.3,3.6,3.9c1.3-0.1,2.6-0.7,3.8-1.3
	c5-2.4,8.5-0.1,8,5.4c-0.2,1.9-0.9,3.9-1.6,5.7c-1,2.6-2.1,5.2-3.2,7.7c-1,2.4,0,2.9,2.3,2.9C455.2,667.1,473,667.1,491.7,667.1z
	 M487.4,454.6c-5.9,6.2-12.5,12-11,21.7c1.4,8.6,6.9,14.5,14.2,20.2C488.3,482,485,468.6,487.4,454.6z"/>
<path class="st1" d="M638.4,573.3c-3.7,2.5-6.7,4.4-9.5,6.6c-3.1,2.4-5.5,5.4-7.2,9c-4.7,9.4-10.6,17.5-21,21.5
	c-5.8,2.3-10.1,6.4-13.3,12.1c-5.5,9.5-12.9,17.7-20.9,25.2c-1.4,1.3-3.2,2.6-5,3.3c-7.6,2.9-14.5,7-19.7,13.4
	c-4.2,5.2-9.5,6.5-15.9,4.9c0.5-2.3,3.5-3.4,4.1-6.2c0.4-2.2,0.1-3.2-2-3.9c-7.6-2.2-11.7-7.3-12.9-15.1c-0.7-4.9-4.8-8.6-9.6-9.1
	c-2.7-0.3-3.2-1.1-4.9-7.5c2-0.4,4.1-0.7,6.1-1.1c3.6-0.8,6.6-2.8,8-6.1c6.7-16,16.6-30.3,24.7-45.6c3.4-6.4,5.6-13.2,6.7-20.4
	c0.9-6.1-0.2-11.6-3.9-16.7c-1.1-1.5-3.9-3.2-2-5.3c1.6-1.8,4.1-0.8,6.3,0.2c15.8,7.2,31.5,14.4,47.3,21.6
	c6.4,2.9,12.8,5.9,19.3,8.8c4,1.8,7.9,3.6,10.5,7.6c2,3,5.8,2.9,9.2,3C634.3,573.3,635.9,573.3,638.4,573.3z"/>
<path class="st1" d="M491.7,667.1c-18.7,0-36.5,0-54.3,0c-2.3,0-3.3-0.5-2.3-2.9c1.1-2.6,2.3-5.1,3.2-7.7c0.7-1.9,1.5-3.8,1.6-5.7
	c0.5-5.5-3.1-7.8-8-5.4c-1.2,0.6-2.5,1.1-3.8,1.3c-2.9,0.3-4.8-1.1-3.6-3.9c2.9-6.9,3-14,3-21.2c0-1.5,0.4-3.3,1.3-4.5
	c2.2-3.1,2.1-6.4,1.6-9.8c-0.9-6.2-0.4-12.2,2.1-18c1.9-4.4,1.6-9.2,1.6-13.8c0-6.5,1.3-12.7,3.7-18.7c4.3-10.6,8.2-21.3,12.4-32.4
	c8.3,7.1,16.4,14.1,24.5,21c3.3,2.9,6.5,6,10.1,8.6c2.5,1.8,2.1,3.2,0.9,5.6c-8.2,16.3-14.5,33.2-17,51.4c-0.7,4.8-0.9,9.6,0.1,14.4
	c0.3,1.5,0.4,2.5-1.4,3.5c-2.1,1.2-4.3,2.8-5.7,4.8c-4,5.8-3.7,6.9,1.8,11.6c1.4,1.2,2.9,2.4,4.3,3.6c1.8,1.7,3.6,3.3,6,0.8
	c0.8-0.8,1.7-0.8,2.2,0.4c3,6.8,9.3,10.5,14,15.7C490.5,665.9,490.9,666.2,491.7,667.1z"/>
<path class="st1" d="M441.6,402.6c-2.7,3.2-4.3,7.2-5.7,10.9c-4,10.3-11.1,18.8-16.5,28.2c-2.3,4-4.8,8.5-9.2,11.7
	c-0.8-3.5-2.1-6.2-5.8-6.4c5-9.9,7-20.4,8.6-30.9c0.4-2.4,1.2-3.5,3.6-4.4c7-2.6,13.8-5.8,20.6-8.7c1.4-0.6,2.9-1.5,4.5-0.4
	L441.6,402.6z"/>
<path class="st1" d="M487.4,454.6c-2.4,13.9,0.9,27.3,3.2,41.9c-7.3-5.7-12.8-11.6-14.2-20.2C474.9,466.6,481.5,460.8,487.4,454.6z"
	/>
<path class="st1" d="M441.7,402.6c-0.2-0.2-0.4-0.3-0.6-0.5c0.1-0.1,0.2-0.1,0.2-0.2c0.1,0.2,0.2,0.4,0.3,0.7
	C441.6,402.6,441.7,402.6,441.7,402.6z"/>
</svg>
